<?xml version="1.0" encoding="UTF-8" standalone="no"?>
<!DOCTYPE svg PUBLIC "-//W3C//DTD SVG 1.1//EN" "http://www.w3.org/Graphics/SVG/1.1/DTD/svg11.dtd">
<svg width="100%" height="100%" viewBox="0 0 3957 1182" version="1.1" xmlns="http://www.w3.org/2000/svg" xmlns:xlink="http://www.w3.org/1999/xlink" xml:space="preserve" xmlns:serif="http://www.serif.com/" style="fill-rule:evenodd;clip-rule:evenodd;stroke-linejoin:round;stroke-miterlimit:2;">
    <g id="Artboard1" transform="matrix(0.926481,0,0,1.01819,-822.715,-1512.01)">
        <rect x="888" y="1485" width="4271" height="1160" style="fill:none;"/>
        <g transform="matrix(0.798215,0,0,0.0206406,540.256,2311.33)">
            <path d="M3019.84,-2026.69C4386.1,-2026.69 5499,2742.56 5499,3518C5499,4293.44 4383.4,-75.803 3017.13,-75.803C1650.87,-75.803 548,4293.44 548,3518C548,2742.56 1653.57,-2026.69 3019.84,-2026.69Z" style="fill:white;"/>
        </g>
        <g transform="matrix(1.07935,0,0,0.982133,1036.18,1078.73)">
            <text x="3588.5px" y="749.577px" style="font-family:'Arial-BoldMT', 'Arial', sans-serif;font-weight:700;font-size:200px;fill:white;">ᵗᵘᵐ</text>
        </g>
        <g transform="matrix(1.07935,0,0,0.982133,-233.356,-50.3059)">
            <path d="M4227.68,2360.82L4227.68,1811.77L4380.61,1811.77L4380.61,1903.17C4434.91,1832.86 4503.27,1797.7 4585.69,1797.7C4622.02,1797.7 4655.22,1804.25 4685.3,1817.33C4715.38,1830.42 4738.13,1847.12 4753.56,1867.43C4768.99,1887.74 4779.73,1910.79 4785.78,1936.57C4791.84,1962.35 4794.87,1999.27 4794.87,2047.31L4794.87,2432.13C4741.48,2423.59 4686.58,2415.41 4630.22,2407.61L4630.22,2116.45C4630.22,2049.27 4626.7,2005.81 4619.67,1986.08C4612.64,1966.36 4601.21,1951.02 4585.39,1940.09C4569.57,1929.15 4550.53,1923.68 4528.27,1923.68C4499.75,1923.68 4474.16,1931.49 4451.51,1947.12C4428.85,1962.74 4413.32,1983.44 4404.93,2009.23C4396.53,2035.01 4392.33,2082.66 4392.33,2152.2L4392.33,2377.92L4390.99,2377.77C4336.84,2371.72 4282.63,2366.1 4228.39,2360.88L4227.68,2360.82Z" style="fill:white;fill-rule:nonzero;"/>
            <path d="M3524.24,2314.07C3520.15,2298.43 3518.11,2281.78 3518.11,2264.11C3518.11,2228.95 3526.51,2197.61 3543.3,2170.07C3560.1,2142.53 3583.64,2121.43 3613.91,2106.78C3644.18,2092.14 3687.84,2079.34 3744.87,2068.41C3821.82,2053.95 3875.14,2040.48 3904.83,2027.98L3904.83,2011.57C3904.83,1979.93 3897.01,1957.37 3881.39,1943.89C3865.76,1930.42 3836.27,1923.68 3792.91,1923.68C3763.62,1923.68 3740.76,1929.44 3724.36,1940.97C3707.95,1952.49 3694.67,1972.7 3684.51,2001.61L3535.1,1974.66C3551.9,1914.5 3580.8,1869.97 3621.82,1841.06C3662.84,1812.16 3723.77,1797.7 3804.63,1797.7C3878.07,1797.7 3932.76,1806.39 3968.7,1823.78C4004.63,1841.16 4029.93,1863.23 4044.57,1889.99C4059.22,1916.75 4066.55,1965.87 4066.55,2037.35L4064.79,2229.54C4064.79,2281.78 4067.2,2320.92 4072.01,2346.97C3985.47,2339.87 3896.88,2333.56 3806.43,2328.1C3824.54,2323.55 3842.1,2315.12 3859.12,2302.78C3879.05,2287.94 3892.13,2269.77 3898.38,2248.29C3902.68,2234.23 3904.83,2207.47 3904.83,2168.02L3904.83,2135.2C3883.73,2142.23 3850.34,2150.63 3804.63,2160.4C3758.93,2170.16 3729.05,2179.73 3714.98,2189.11C3693.5,2204.34 3682.76,2223.68 3682.76,2247.12C3682.76,2270.16 3691.35,2290.09 3708.54,2306.88C3715.93,2314.1 3724.18,2319.77 3733.3,2323.89C3664.6,2320.13 3594.88,2316.85 3524.24,2314.07Z" style="fill:white;fill-rule:nonzero;"/>
            <path d="M2482.17,2310.47L2482.17,1811.77L2633.93,1811.77L2633.93,1896.73C2688.23,1830.71 2752.88,1797.7 2827.88,1797.7C2867.72,1797.7 2902.29,1805.91 2931.59,1822.31C2960.88,1838.72 2984.91,1863.52 3003.66,1896.73C3031,1863.52 3060.49,1838.72 3092.13,1822.31C3123.77,1805.91 3157.56,1797.7 3193.5,1797.7C3239.2,1797.7 3277.88,1806.98 3309.51,1825.54C3341.16,1844.09 3364.79,1871.34 3380.41,1907.27C3391.74,1933.84 3397.41,1976.81 3397.41,2036.18L3397.41,2309.66L3393.01,2309.53C3340.64,2307.98 3288.25,2306.7 3235.86,2305.68L3232.76,2305.63L3232.76,2078.37C3232.76,2016.65 3227.09,1976.81 3215.76,1958.84C3200.53,1935.4 3177.09,1923.68 3145.45,1923.68C3122.41,1923.68 3100.73,1930.71 3080.41,1944.77C3060.1,1958.84 3045.45,1979.44 3036.47,2006.59C3027.48,2033.74 3022.99,2076.61 3022.99,2135.2L3022.99,2303.16C2999.63,2303.05 2976.22,2303 2952.76,2303C2921.14,2303 2889.64,2303.1 2858.34,2303.3L2858.34,2093.02C2858.34,2032.47 2855.41,1993.41 2849.55,1975.83C2843.7,1958.25 2834.61,1945.16 2822.31,1936.57C2810,1927.98 2793.3,1923.68 2772.21,1923.68C2746.82,1923.68 2723.97,1930.52 2703.66,1944.19C2683.34,1957.86 2668.79,1977.59 2660,2003.37C2651.21,2029.15 2646.82,2071.92 2646.82,2131.69L2646.82,2306.14L2641.74,2306.24C2589.49,2307.36 2537.26,2308.73 2485.03,2310.38L2482.17,2310.47Z" style="fill:white;fill-rule:nonzero;"/>
            <path d="M2331.01,2316.14C2239.89,2320.08 2148.81,2324.87 2057.79,2330.66C1970.33,2336.22 1882.92,2342.72 1795.6,2350.14L1791.67,2350.48C1746.92,2293.8 1724.55,2217.16 1724.55,2120.55C1724.55,2015.09 1749.36,1934.91 1798.97,1880.03C1848.58,1825.14 1911.27,1797.7 1987.05,1797.7C2056.59,1797.7 2116.74,1826.61 2167.52,1884.42L2167.52,1575.05L2332.17,1575.05L2332.17,2316.09L2331.01,2316.14ZM1892.72,2109.42C1892.72,2175.83 1901.9,2223.88 1920.26,2253.56C1946.82,2296.53 1983.93,2318.02 2031.59,2318.02C2069.48,2318.02 2101.7,2301.9 2128.26,2269.68C2154.83,2237.45 2168.11,2189.3 2168.11,2125.24C2168.11,2053.76 2155.22,2002.29 2129.44,1970.85C2103.66,1939.4 2070.65,1923.68 2030.41,1923.68C1991.35,1923.68 1958.64,1939.21 1932.27,1970.26C1905.9,2001.32 1892.72,2047.7 1892.72,2109.42Z" style="fill:white;fill-rule:nonzero;"/>
            <path d="M1149.7,2425.99C1133.51,2418.09 1118.98,2408.08 1106.1,2395.95C1069.18,2361.18 1050.73,2317.23 1050.73,2264.11C1050.73,2228.95 1059.12,2197.61 1075.92,2170.07C1092.72,2142.53 1116.25,2121.43 1146.53,2106.78C1176.8,2092.14 1220.45,2079.34 1277.48,2068.41C1354.44,2053.95 1407.76,2040.48 1437.44,2027.98L1437.44,2011.57C1437.44,1979.93 1429.63,1957.37 1414.01,1943.89C1398.38,1930.42 1368.89,1923.68 1325.53,1923.68C1296.23,1923.68 1273.38,1929.44 1256.98,1940.97C1240.57,1952.49 1227.29,1972.7 1217.13,2001.61L1067.72,1974.66C1084.52,1914.5 1113.42,1869.97 1154.44,1841.06C1195.45,1812.16 1256.39,1797.7 1337.25,1797.7C1410.69,1797.7 1465.38,1806.39 1501.31,1823.78C1537.25,1841.16 1562.54,1863.23 1577.19,1889.99C1591.84,1916.75 1599.16,1965.87 1599.16,2037.35L1597.41,2229.54C1597.41,2284.23 1600.04,2324.56 1605.32,2350.53C1606.45,2356.14 1607.81,2361.83 1609.37,2367.61C1557.32,2372.94 1506.16,2378.58 1455.94,2384.5C1453.34,2375.24 1451.47,2369.09 1450.34,2366.06C1442.17,2374 1433.84,2381.37 1425.34,2388.16C1329.77,2399.74 1237.74,2412.38 1149.7,2425.99ZM1437.44,2135.2C1416.35,2142.23 1382.95,2150.63 1337.25,2160.4C1291.55,2170.16 1261.66,2179.73 1247.6,2189.11C1226.12,2204.34 1215.38,2223.68 1215.38,2247.12C1215.38,2270.16 1223.97,2290.09 1241.16,2306.88C1258.34,2323.68 1280.22,2332.08 1306.78,2332.08C1336.47,2332.08 1364.79,2322.31 1391.74,2302.78C1411.66,2287.94 1424.75,2269.77 1431,2248.29C1435.3,2234.23 1437.44,2207.47 1437.44,2168.02L1437.44,2135.2Z" style="fill:white;fill-rule:nonzero;"/>
        </g>
    </g>
</svg>
